<?xml version="1.0" standAlone="no"?>
<!DOCTYPE svg PUBLIC "-//W3C//DTD SVG 20010904//EN"
 "http://www.w3.org/TR/2001/REC-SVG-20010904/DTD/svg10.dtd">
<svg version="1.0" xmlns="http://www.w3.org/2000/svg"
 width="237.000000pt" height="303.000000pt" viewBox="0 0 237.000000 303.000000"
 preserveAspectRatio="xMidYMid meet">

<g transform="translate(0.000000,303.000000) scale(0.100000,-0.100000)"
fill="#000000" stroke="none">
<path d="M695 2193 c-46 -10 -73 -26 -84 -49 -21 -47 18 -60 69 -23 16 13 35
19 45 15 9 -3 25 -1 36 4 16 9 21 7 29 -15 6 -15 6 -33 1 -43 -5 -9 -14 -29
-19 -44 -8 -20 -21 -29 -46 -34 -40 -7 -75 2 -60 15 5 5 26 14 46 21 21 6 40
15 43 19 2 5 -12 3 -33 -5 -20 -7 -54 -13 -74 -14 -41 0 -43 -2 -28 -30 12
-23 82 -44 112 -34 42 13 76 59 76 105 1 23 -3 50 -8 60 -9 15 -72 61 -81 58
-2 -1 -13 -3 -24 -6z"/>
<path d="M363 2169 c19 -27 88 -81 95 -75 4 5 -54 59 -91 85 -20 14 -20 14 -4
-10z"/>
<path d="M1074 2067 c-3 -10 -4 -32 0 -49 6 -30 5 -31 -12 -14 -40 35 -79 -22
-51 -73 21 -38 56 -40 65 -4 7 24 10 18 23 -45 18 -82 37 -96 33 -24 -2 46 -2
46 14 24 31 -45 88 -9 69 44 -20 55 -72 57 -85 3 -4 -17 -10 -2 -19 51 -16 89
-26 114 -37 87z m-14 -125 c0 -12 -3 -12 -15 -2 -8 7 -15 22 -15 34 1 21 1 21
15 2 8 -11 15 -26 15 -34z m130 -39 c0 -13 -3 -13 -15 -3 -8 7 -15 19 -15 27
0 13 3 13 15 3 8 -7 15 -19 15 -27z"/>
<path d="M890 1925 c-19 -21 -22 -32 -18 -80 l5 -56 -27 26 c-53 50 -120 14
-120 -65 0 -45 36 -116 73 -144 26 -19 28 -19 61 -3 41 19 54 62 37 122 l-10
38 32 -31 c36 -35 44 -37 81 -21 53 24 57 95 10 176 -39 68 -83 81 -124 38z
m74 -53 c32 -52 46 -96 35 -113 -22 -33 -101 105 -85 148 8 19 22 9 50 -35z
m-118 -146 c17 -33 25 -59 20 -71 -6 -17 -9 -16 -36 10 -34 33 -65 106 -56
131 6 16 8 16 25 0 11 -10 32 -41 47 -70z"/>
<path d="M291 1775 l0 -50 175 -200 c97 -110 190 -216 207 -235 59 -65 184
-205 218 -242 18 -21 37 -38 43 -38 6 0 4 5 -4 10 -8 5 -10 10 -5 10 7 0 6 3
0 8 -6 4 -33 36 -60 70 -28 35 -162 197 -298 359 -137 163 -255 309 -263 327
l-13 31 0 -50z"/>
<path d="M1233 1783 c-12 -4 -19 -53 -8 -53 3 0 19 10 35 21 26 20 32 21 60 9
17 -7 37 -22 45 -33 21 -29 -4 -70 -57 -95 -66 -32 -97 -37 -104 -18 -12 30
74 96 126 96 26 0 26 16 -1 31 -17 8 -31 7 -65 -6 -68 -26 -104 -60 -104 -99
0 -86 124 -90 213 -8 40 38 36 75 -12 123 -32 32 -45 39 -77 38 -22 0 -45 -3
-51 -6z"/>
<path d="M670 1751 c0 -5 -11 -23 -25 -39 -15 -19 -21 -33 -15 -37 5 -3 14 -4
18 -1 5 3 27 -33 50 -80 38 -77 44 -84 62 -74 11 6 20 14 20 19 0 13 -99 221
-105 221 -3 0 -5 -4 -5 -9z"/>
<path d="M2356 1728 c-5 -16 -5 -40 0 -55 l8 -28 4 28 c2 15 2 39 0 55 l-4 27
-8 -27z"/>
<path d="M1321 1565 c-81 -44 -83 -46 -65 -70 14 -19 16 -19 73 13 66 36 86
40 77 15 -8 -19 10 -34 31 -26 20 8 15 36 -12 62 -14 13 -25 27 -25 32 0 14
-11 11 -79 -26z"/>
<path d="M1002 1544 c-12 -8 -22 -23 -22 -32 0 -14 -7 -17 -37 -14 -47 4 -71
-13 -79 -55 -5 -27 -1 -37 23 -62 29 -28 33 -29 111 -28 45 1 82 5 82 9 0 5
-5 8 -11 8 -6 0 -20 11 -31 25 -13 17 -29 25 -51 25 -31 0 -31 0 -9 -16 26
-18 20 -34 -13 -34 -37 0 -57 25 -43 56 11 23 17 25 55 22 41 -3 43 -2 43 23
0 31 21 52 47 47 26 -5 29 -38 4 -45 -23 -6 -27 -18 -11 -28 22 -13 50 6 50
34 0 51 -68 93 -108 65z"/>
<path d="M1425 1483 c-32 -8 -85 -52 -85 -72 0 -9 5 -22 12 -29 8 -8 5 -11
-16 -9 -35 3 -56 -24 -40 -50 13 -21 65 -29 94 -13 26 14 57 -2 62 -32 2 -13
13 -27 26 -33 12 -5 22 -15 22 -22 0 -7 12 -25 26 -40 14 -15 29 -34 34 -42 6
-12 18 -8 65 18 31 18 64 30 72 27 20 -8 8 -23 -36 -46 -21 -10 -41 -26 -45
-35 -7 -20 10 -55 27 -55 7 0 18 -13 25 -29 8 -18 22 -31 35 -33 16 -2 23 -11
25 -30 4 -32 36 -58 72 -58 l25 0 -30 24 c-27 21 -28 25 -15 41 18 22 77 48
91 40 5 -4 8 -14 7 -23 -3 -19 23 -23 29 -5 7 20 -43 63 -74 63 -15 0 -43 -9
-62 -21 -33 -20 -69 -19 -56 1 4 6 29 22 56 35 53 27 58 35 33 56 -13 11 -25
8 -74 -19 -69 -38 -92 -26 -25 13 53 32 56 51 18 103 -15 20 -28 39 -30 41 -1
2 -30 -10 -63 -28 -33 -18 -65 -29 -70 -26 -16 10 -3 23 51 50 27 14 49 29 49
33 -1 12 -46 59 -68 71 -30 16 -52 14 -97 -9 -23 -12 -43 -16 -48 -11 -5 5 13
20 45 36 71 35 74 39 44 63 -14 11 -26 24 -26 29 0 6 -11 15 -25 21 -27 13
-28 13 -60 5z m70 -42 c7 -13 -81 -65 -95 -56 -18 11 -11 30 18 47 30 19 68
23 77 9z m-150 -91 c3 -5 -1 -10 -9 -10 -9 0 -16 5 -16 10 0 6 4 10 9 10 6 0
13 -4 16 -10z m259 -38 c7 -11 -66 -52 -93 -52 -27 0 -19 21 17 43 29 18 68
22 76 9z"/>
<path d="M1156 1324 c-17 -17 -21 -40 -8 -48 5 -3 16 4 25 15 14 16 67 28 67
15 0 -2 -43 -27 -95 -55 -52 -29 -95 -55 -95 -60 0 -5 6 -14 14 -20 11 -10 25
-7 66 14 52 26 52 26 66 6 8 -11 21 -18 29 -15 12 5 12 9 -1 29 -15 22 -14 24
13 39 27 14 29 13 49 -12 18 -22 25 -24 43 -16 21 9 20 11 -31 67 -46 49 -59
57 -90 57 -20 0 -44 -7 -52 -16z"/>
<path d="M1200 1143 c-36 -20 -66 -37 -68 -39 -2 -1 1 -12 8 -23 11 -21 11
-21 70 9 70 35 80 37 80 10 0 -24 38 -28 46 -5 5 13 -51 85 -66 85 -3 0 -34
-17 -70 -37z"/>
<path d="M1822 1128 c4 -28 42 -37 52 -13 9 24 -1 35 -30 35 -21 0 -25 -4 -22
-22z"/>
<path d="M1273 1050 c-40 -24 -52 -63 -28 -90 10 -11 26 -20 37 -20 12 0 18
-7 18 -23 0 -30 35 -67 62 -67 16 0 18 -3 9 -13 -8 -10 -7 -18 3 -32 12 -17
16 -17 71 13 32 18 65 32 73 32 24 0 7 -24 -33 -47 -21 -12 -42 -28 -47 -36
-13 -24 2 -47 29 -47 13 0 22 4 19 9 -3 5 14 21 39 35 49 29 58 56 29 87 -14
16 -13 18 15 35 30 18 30 18 11 36 -19 18 -22 18 -96 -23 l-77 -42 19 29 c10
16 26 39 37 50 18 22 18 22 -4 37 -17 12 -27 13 -42 5 -11 -5 -34 -12 -51 -14
-17 -2 -40 -6 -52 -9 -26 -8 -53 20 -36 37 8 8 19 7 41 -2 60 -25 107 10 76
56 -20 30 -76 32 -122 4z m107 -30 c0 -6 -7 -13 -15 -16 -20 -8 -48 3 -40 16
8 13 55 13 55 0z m11 -88 c-15 -29 -37 -43 -55 -36 -25 9 -20 33 5 27 14 -4
25 0 31 11 13 23 31 21 19 -2z"/>
<path d="M1995 897 l-27 -23 45 -49 c25 -28 48 -47 53 -43 4 5 -1 17 -11 28
-16 17 -16 20 -2 26 8 3 25 0 37 -6 16 -9 25 -9 33 -1 8 8 2 14 -21 22 -20 7
-29 15 -25 25 7 19 -15 44 -38 44 -10 0 -30 -10 -44 -23z m55 -22 c0 -18 -25
-26 -38 -13 -8 8 -7 15 6 24 19 14 32 10 32 -11z"/>
<path d="M1912 828 c-20 -20 -14 -50 15 -80 61 -64 124 -9 72 63 -22 31 -65
39 -87 17z m67 -34 c25 -32 26 -43 4 -51 -20 -8 -65 41 -57 62 9 23 30 18 53
-11z"/>
<path d="M1835 760 c-28 -29 -29 -54 -1 -31 12 10 20 4 47 -29 18 -22 36 -40
41 -40 17 0 7 25 -24 57 -25 26 -29 36 -20 45 7 7 12 16 12 20 0 17 -28 6 -55
-22z"/>
<path d="M1762 698 c-19 -19 -14 -44 14 -77 27 -32 61 -40 82 -19 15 15 16 58
2 58 -5 0 -10 -9 -10 -20 0 -34 -30 -37 -57 -6 -29 34 -26 50 10 54 15 2 27 8
27 13 0 13 -54 11 -68 -3z"/>
<path d="M1686 631 l-28 -29 38 -46 c21 -25 43 -46 49 -46 16 0 55 43 55 60 0
9 -9 5 -25 -10 -19 -18 -28 -21 -37 -12 -9 9 -7 16 7 32 24 26 11 39 -16 15
-17 -16 -22 -17 -29 -5 -6 10 -3 21 10 35 11 12 20 24 20 28 0 15 -17 6 -44
-22z"/>
<path d="M1638 594 c-4 -3 0 -23 7 -45 16 -44 11 -47 -25 -19 -29 23 -40 25
-40 7 0 -14 108 -82 117 -73 6 6 -33 113 -47 129 -3 4 -9 5 -12 1z"/>
</g>
</svg>
